<?xml version="1.0" encoding="UTF-8"?>
<svg viewBox="0 0 1200 800" xmlns="http://www.w3.org/2000/svg">
  <!-- Background -->
  <rect width="1200" height="800" fill="#f0f2f5" />
  
  <!-- Title (moved to left top) -->
  <text x="60" y="50" font-family="Arial, sans-serif" font-size="32" font-weight="bold" fill="#2d3436">交换人生 - 游戏规则流程图</text>
  
  <!-- Circles (centered in the wider canvas) -->
  <circle cx="600" cy="430" r="260" fill="none" stroke="#6c5ce7" stroke-width="3" opacity="0.8" />
  <circle cx="600" cy="430" r="180" fill="none" stroke="#00b894" stroke-width="3" opacity="0.8" />
  <circle cx="600" cy="430" r="100" fill="none" stroke="#e17055" stroke-width="3" opacity="0.8" />
  
  <!-- Circle Labels (adjusted position - moved to the left) -->
  <text x="450" y="155" font-family="Arial, sans-serif" font-size="20" font-weight="bold" text-anchor="middle" fill="#6c5ce7">第一圈: 进入游戏世界</text>
  <text x="450" y="245" font-family="Arial, sans-serif" font-size="20" font-weight="bold" text-anchor="middle" fill="#00b894">第二圈: 世界聚变</text>
  <text x="450" y="325" font-family="Arial, sans-serif" font-size="20" font-weight="bold" text-anchor="middle" fill="#e17055">第三圈: 回到现实</text>
  
  <!-- Center Star -->
  <g transform="translate(600, 430)">
    <polygon points="0,-40 9.2,-12.4 38,-12.4 15.4,4.8 23.4,32.4 0,16 -23.4,32.4 -15.4,4.8 -38,-12.4 -9.2,-12.4" fill="#feca57" stroke="#ff9f43" stroke-width="2" />
    <text x="0" y="0" font-family="Arial, sans-serif" font-size="12" font-weight="bold" text-anchor="middle" dominant-baseline="middle" fill="#2d3436">交换人生</text>
  </g>
  
  <!-- First Circle Nodes and Text Boxes -->
  <g transform="translate(600, 430)">
    <!-- Node 1 -->
    <circle cx="0" cy="-260" r="28" fill="#6c5ce7" opacity="0.9" />
    <text x="0" y="-260" font-family="Arial, sans-serif" font-size="18" font-weight="bold" text-anchor="middle" dominant-baseline="middle" fill="white">1</text>
    
    <!-- Text box 1 -->
    <rect x="-80" y="-330" width="160" height="30" rx="15" ry="15" fill="white" stroke="#6c5ce7" stroke-width="2" />
    <text x="0" y="-310" font-family="Arial, sans-serif" font-size="16" font-weight="bold" text-anchor="middle" fill="#2d3436">进入游戏世界</text>
    <!-- Connect text to node -->
    <line x1="0" y1="-300" x2="0" y2="-288" stroke="#6c5ce7" stroke-width="2" />
    
    <!-- Node 2 -->
    <circle cx="225" cy="-130" r="28" fill="#6c5ce7" opacity="0.9" />
    <text x="225" y="-130" font-family="Arial, sans-serif" font-size="18" font-weight="bold" text-anchor="middle" dominant-baseline="middle" fill="white">2</text>
    
    <!-- Text box 2 - adjusted position to avoid overlap -->
    <rect x="280" y="-160" width="150" height="30" rx="15" ry="15" fill="white" stroke="#6c5ce7" stroke-width="2" />
    <text x="355" y="-140" font-family="Arial, sans-serif" font-size="16" font-weight="bold" text-anchor="middle" fill="#2d3436">写下现实身份</text>
    <!-- Connect text to node -->
    <line x1="280" y1="-145" x2="253" y2="-130" stroke="#6c5ce7" stroke-width="2" />
    
    <!-- Node 3 -->
    <circle cx="225" cy="130" r="28" fill="#6c5ce7" opacity="0.9" />
    <text x="225" y="130" font-family="Arial, sans-serif" font-size="18" font-weight="bold" text-anchor="middle" dominant-baseline="middle" fill="white">3</text>
    
    <!-- Text box 3 - adjusted position to avoid overlap -->
    <rect x="280" y="100" width="150" height="30" rx="15" ry="15" fill="white" stroke="#6c5ce7" stroke-width="2" />
    <text x="355" y="120" font-family="Arial, sans-serif" font-size="16" font-weight="bold" text-anchor="middle" fill="#2d3436">代入游戏角色</text>
    <!-- Connect text to node -->
    <line x1="280" y1="115" x2="253" y2="130" stroke="#6c5ce7" stroke-width="2" />
    
    <!-- Node 4 -->
    <circle cx="0" cy="260" r="28" fill="#6c5ce7" opacity="0.9" />
    <text x="0" y="260" font-family="Arial, sans-serif" font-size="18" font-weight="bold" text-anchor="middle" dominant-baseline="middle" fill="white">4</text>
    
    <!-- Text box 4 -->
    <rect x="-125" y="320" width="250" height="30" rx="15" ry="15" fill="white" stroke="#6c5ce7" stroke-width="2" />
    <text x="0" y="340" font-family="Arial, sans-serif" font-size="16" font-weight="bold" text-anchor="middle" fill="#2d3436">在游戏事件中演绎自己</text>
    <!-- Connect text to node -->
    <line x1="0" y1="320" x2="0" y2="288" stroke="#6c5ce7" stroke-width="2" />
    
    <!-- Node 5 -->
    <circle cx="-225" cy="130" r="28" fill="#6c5ce7" opacity="0.9" />
    <text x="-225" y="130" font-family="Arial, sans-serif" font-size="18" font-weight="bold" text-anchor="middle" dominant-baseline="middle" fill="white">5</text>
    
    <!-- Text box 5 - adjusted position to avoid overlap -->
    <rect x="-490" y="100" width="190" height="30" rx="15" ry="15" fill="white" stroke="#6c5ce7" stroke-width="2" />
    <text x="-395" y="120" font-family="Arial, sans-serif" font-size="16" font-weight="bold" text-anchor="middle" fill="#2d3436">见自己见他人见世界</text>
    <!-- Connect text to node -->
    <line x1="-300" y1="115" x2="-253" y2="130" stroke="#6c5ce7" stroke-width="2" />
    
    <!-- Node 6 -->
    <circle cx="-225" cy="-130" r="28" fill="#6c5ce7" opacity="0.9" />
    <text x="-225" y="-130" font-family="Arial, sans-serif" font-size="18" font-weight="bold" text-anchor="middle" dominant-baseline="middle" fill="white">6</text>
    
    <!-- Text box 6 - adjusted position to avoid overlap -->
    <rect x="-490" y="-160" width="190" height="30" rx="15" ry="15" fill="white" stroke="#6c5ce7" stroke-width="2" />
    <text x="-395" y="-140" font-family="Arial, sans-serif" font-size="16" font-weight="bold" text-anchor="middle" fill="#2d3436">达成彼此的链接</text>
    <!-- Connect text to node -->
    <line x1="-300" y1="-145" x2="-253" y2="-130" stroke="#6c5ce7" stroke-width="2" />
    
    <!-- Arrows connecting first circle with arrow markers -->
    <path d="M0,-232 Q 113,-201 197,-130" fill="none" stroke="#6c5ce7" stroke-width="3" marker-end="url(#arrowhead1)" />
    <path d="M197,-102 Q 237,-40 197,102" fill="none" stroke="#6c5ce7" stroke-width="3" marker-end="url(#arrowhead1)" />
    <path d="M197,158 Q 113,201 28,232" fill="none" stroke="#6c5ce7" stroke-width="3" marker-end="url(#arrowhead1)" />
    <path d="M-28,232 Q -113,201 -197,158" fill="none" stroke="#6c5ce7" stroke-width="3" marker-end="url(#arrowhead1)" />
    <path d="M-197,102 Q -237,-40 -197,-102" fill="none" stroke="#6c5ce7" stroke-width="3" marker-end="url(#arrowhead1)" />
    <path d="M-197,-158 Q -113,-201 -28,-232" fill="none" stroke="#6c5ce7" stroke-width="3" marker-end="url(#arrowhead1)" />
  </g>
  
  <!-- Second Circle Nodes and Text Boxes -->
  <g transform="translate(600, 430)">
    <!-- Node 1 -->
    <circle cx="0" cy="-180" r="25" fill="#00b894" opacity="0.9" />
    <text x="0" y="-180" font-family="Arial, sans-serif" font-size="18" font-weight="bold" text-anchor="middle" dominant-baseline="middle" fill="white">1</text>
    
    <!-- Text box 1 -->
    <rect x="-150" y="-230" width="300" height="30" rx="15" ry="15" fill="white" stroke="#00b894" stroke-width="2" />
    <text x="0" y="-210" font-family="Arial, sans-serif" font-size="16" font-weight="bold" text-anchor="middle" fill="#2d3436">世界聚变：丢失一件宝贵之物</text>
    <!-- Connect text to node -->
    <line x1="0" y1="-200" x2="0" y2="-205" stroke="#00b894" stroke-width="2" />
    
    <!-- Node 2 -->
    <circle cx="155.9" cy="-90" r="25" fill="#00b894" opacity="0.9" />
    <text x="155.9" y="-90" font-family="Arial, sans-serif" font-size="18" font-weight="bold" text-anchor="middle" dominant-baseline="middle" fill="white">2</text>
    
    <!-- Text box 2 - adjusted position to avoid overlap -->
    <rect x="200" y="-120" width="120" height="30" rx="15" ry="15" fill="white" stroke="#00b894" stroke-width="2" />
    <text x="260" y="-100" font-family="Arial, sans-serif" font-size="16" font-weight="bold" text-anchor="middle" fill="#2d3436">寻找线索</text>
    <!-- Connect text to node -->
    <line x1="200" y1="-105" x2="180.9" y2="-90" stroke="#00b894" stroke-width="2" />
    
    <!-- Node 3 -->
    <circle cx="155.9" cy="90" r="25" fill="#00b894" opacity="0.9" />
    <text x="155.9" y="90" font-family="Arial, sans-serif" font-size="18" font-weight="bold" text-anchor="middle" dominant-baseline="middle" fill="white">3</text>
    
    <!-- Text box 3 - adjusted position to avoid overlap -->
    <rect x="200" y="60" width="180" height="30" rx="15" ry="15" fill="white" stroke="#00b894" stroke-width="2" />
    <text x="290" y="80" font-family="Arial, sans-serif" font-size="16" font-weight="bold" text-anchor="middle" fill="#2d3436">与其他玩家组队解谜</text>
    <!-- Connect text to node -->
    <line x1="200" y1="75" x2="180.9" y2="90" stroke="#00b894" stroke-width="2" />
    
    <!-- Node 4 -->
    <circle cx="0" cy="180" r="25" fill="#00b894" opacity="0.9" />
    <text x="0" y="180" font-family="Arial, sans-serif" font-size="18" font-weight="bold" text-anchor="middle" dominant-baseline="middle" fill="white">4</text>
    
    <!-- Text box 4 -->
    <rect x="-120" y="220" width="240" height="30" rx="15" ry="15" fill="white" stroke="#00b894" stroke-width="2" />
    <text x="0" y="240" font-family="Arial, sans-serif" font-size="16" font-weight="bold" text-anchor="middle" fill="#2d3436">发现彼此盖洛普优势</text>
    <!-- Connect text to node -->
    <line x1="0" y1="220" x2="0" y2="205" stroke="#00b894" stroke-width="2" />
    
    <!-- Node 5 -->
    <circle cx="-155.9" cy="90" r="25" fill="#00b894" opacity="0.9" />
    <text x="-155.9" y="90" font-family="Arial, sans-serif" font-size="18" font-weight="bold" text-anchor="middle" dominant-baseline="middle" fill="white">5</text>
    
    <!-- Text box 5 - adjusted position to avoid overlap -->
    <rect x="-410" y="60" width="210" height="30" rx="15" ry="15" fill="white" stroke="#00b894" stroke-width="2" />
    <text x="-305" y="80" font-family="Arial, sans-serif" font-size="16" font-weight="bold" text-anchor="middle" fill="#2d3436">找回遗失之物，续写故事</text>
    <!-- Connect text to node -->
    <line x1="-200" y1="75" x2="-180.9" y2="90" stroke="#00b894" stroke-width="2" />
    
    <!-- Arrows connecting second circle with arrow markers -->
    <path d="M0,-155 Q 78,-138 130.9,-90" fill="none" stroke="#00b894" stroke-width="3" marker-end="url(#arrowhead2)" />
    <path d="M130.9,-65 Q 160,-15 130.9,65" fill="none" stroke="#00b894" stroke-width="3" marker-end="url(#arrowhead2)" />
    <path d="M130.9,115 Q 78,138 25,155" fill="none" stroke="#00b894" stroke-width="3" marker-end="url(#arrowhead2)" />
    <path d="M-25,155 Q -78,138 -130.9,115" fill="none" stroke="#00b894" stroke-width="3" marker-end="url(#arrowhead2)" />
    <path d="M-130.9,65 Q -160,-95 -25,-155" fill="none" stroke="#00b894" stroke-width="3" marker-end="url(#arrowhead2)" stroke-dasharray="8,4" />
  </g>
  
  <!-- Third Circle Nodes and Text Boxes -->
  <g transform="translate(600, 430)">
    <!-- Node 1 -->
    <circle cx="0" cy="-100" r="22" fill="#e17055" opacity="0.9" />
    <text x="0" y="-100" font-family="Arial, sans-serif" font-size="16" font-weight="bold" text-anchor="middle" dominant-baseline="middle" fill="white">1</text>
    
    <!-- Text box 1 -->
    <rect x="-90" y="-140" width="180" height="25" rx="12.5" ry="12.5" fill="white" stroke="#e17055" stroke-width="2" />
    <text x="0" y="-123" font-family="Arial, sans-serif" font-size="14" font-weight="bold" text-anchor="middle" fill="#2d3436">回到现实世界</text>
    <!-- Connect text to node -->
    <line x1="0" y1="-115" x2="0" y2="-122" stroke="#e17055" stroke-width="2" />
    
    <!-- Node 2 -->
    <circle cx="87" cy="-50" r="22" fill="#e17055" opacity="0.9" />
    <text x="87" y="-50" font-family="Arial, sans-serif" font-size="16" font-weight="bold" text-anchor="middle" dominant-baseline="middle" fill="white">2</text>
    
    <!-- Text box 2 - adjusted position to avoid overlap -->
    <rect x="128" y="-70" width="170" height="25" rx="12.5" ry="12.5" fill="white" stroke="#e17055" stroke-width="2" />
    <text x="213" y="-53" font-family="Arial, sans-serif" font-size="14" font-weight="bold" text-anchor="middle" fill="#2d3436">抽取代表自己的oh卡</text>
    <!-- Connect text to node -->
    <line x1="128" y1="-57.5" x2="109" y2="-50" stroke="#e17055" stroke-width="2" />
    
    <!-- Node 3 -->
    <circle cx="87" cy="50" r="22" fill="#e17055" opacity="0.9" />
    <text x="87" y="50" font-family="Arial, sans-serif" font-size="16" font-weight="bold" text-anchor="middle" dominant-baseline="middle" fill="white">3</text>
    
    <!-- Text box 3 - adjusted position to avoid overlap -->
    <rect x="128" y="30" width="225" height="25" rx="12.5" ry="12.5" fill="white" stroke="#e17055" stroke-width="2" />
    <text x="240.5" y="47" font-family="Arial, sans-serif" font-size="14" font-weight="bold" text-anchor="middle" fill="#2d3436">通过oh卡提问和推测身份</text>
    <!-- Connect text to node -->
    <line x1="128" y1="42.5" x2="109" y2="50" stroke="#e17055" stroke-width="2" />
    
    <!-- Node 4 -->
    <circle cx="0" cy="100" r="22" fill="#e17055" opacity="0.9" />
    <text x="0" y="100" font-family="Arial, sans-serif" font-size="16" font-weight="bold" text-anchor="middle" dominant-baseline="middle" fill="white">4</text>
    
    <!-- Text box 4 -->
    <rect x="-90" y="130" width="180" height="25" rx="12.5" ry="12.5" fill="white" stroke="#e17055" stroke-width="2" />
    <text x="0" y="147" font-family="Arial, sans-serif" font-size="14" font-weight="bold" text-anchor="middle" fill="#2d3436">交流彼此的卡点</text>
    <!-- Connect text to node -->
    <line x1="0" y1="130" x2="0" y2="122" stroke="#e17055" stroke-width="2" />
    
    <!-- Node 5 -->
    <circle cx="-87" cy="50" r="22" fill="#e17055" opacity="0.9" />
    <text x="-87" y="50" font-family="Arial, sans-serif" font-size="16" font-weight="bold" text-anchor="middle" dominant-baseline="middle" fill="white">5</text>
    
    <!-- Text box 5 - adjusted position to avoid overlap -->
    <rect x="-313" y="30" width="190" height="25" rx="12.5" ry="12.5" fill="white" stroke="#e17055" stroke-width="2" />
    <text x="-218" y="47" font-family="Arial, sans-serif" font-size="14" font-weight="bold" text-anchor="middle" fill="#2d3436">写下明信片赠与他人</text>
    <!-- Connect text to node -->
    <line x1="-123" y1="42.5" x2="-109" y2="50" stroke="#e17055" stroke-width="2" />
    
    <!-- Arrows connecting third circle with arrow markers -->
    <path d="M0,-78 Q 44,-70 65,-50" fill="none" stroke="#e17055" stroke-width="3" marker-end="url(#arrowhead3)" />
    <path d="M65,-28 Q 87,0 65,28" fill="none" stroke="#e17055" stroke-width="3" marker-end="url(#arrowhead3)" />
    <path d="M65,72 Q 44,70 22,78" fill="none" stroke="#e17055" stroke-width="3" marker-end="url(#arrowhead3)" />
    <path d="M-22,78 Q -44,70 -65,72" fill="none" stroke="#e17055" stroke-width="3" marker-end="url(#arrowhead3)" />
    <path d="M-65,28 Q -87,0 -65,-28" fill="none" stroke="#e17055" stroke-width="3" marker-end="url(#arrowhead3)" />
    <path d="M-65,-50 Q -44,-70 -22,-78" fill="none" stroke="#e17055" stroke-width="3" marker-end="url(#arrowhead3)" />
  </g>
  
  <!-- Legend (moved to right bottom) -->
  <g transform="translate(900, 680)">
    <rect x="0" y="-20" width="24" height="24" rx="12" ry="12" fill="#6c5ce7" opacity="0.9" />
    <text x="34" y="-3" font-family="Arial, sans-serif" font-size="16" font-weight="bold" fill="#2d3436">第一圈：外圈</text>
    
    <rect x="0" y="20" width="24" height="24" rx="12" ry="12" fill="#00b894" opacity="0.9" />
    <text x="34" y="37" font-family="Arial, sans-serif" font-size="16" font-weight="bold" fill="#2d3436">第二圈：中圈</text>
    
    <rect x="0" y="60" width="24" height="24" rx="12" ry="12" fill="#e17055" opacity="0.9" />
    <text x="34" y="77" font-family="Arial, sans-serif" font-size="16" font-weight="bold" fill="#2d3436">第三圈：内圈</text>
    
    <line x1="200" y1="37" x2="240" y2="37" stroke="#2d3436" stroke-width="3" marker-end="url(#arrowhead4)" />
    <text x="250" y="42" font-family="Arial, sans-serif" font-size="16" font-weight="bold" fill="#2d3436">流程方向</text>
  </g>
  
  <!-- Arrowhead Markers with different colors -->
  <defs>
    <marker id="arrowhead1" markerWidth="12" markerHeight="8" refX="10" refY="4" orient="auto">
      <polygon points="0 0, 12 4, 0 8" fill="#6c5ce7" />
    </marker>
    <marker id="arrowhead2" markerWidth="12" markerHeight="8" refX="10" refY="4" orient="auto">
      <polygon points="0 0, 12 4, 0 8" fill="#00b894" />
    </marker>
    <marker id="arrowhead3" markerWidth="12" markerHeight="8" refX="10" refY="4" orient="auto">
      <polygon points="0 0, 12 4, 0 8" fill="#e17055" />
    </marker>
    <marker id="arrowhead4" markerWidth="12" markerHeight="8" refX="10" refY="4" orient="auto">
      <polygon points="0 0, 12 4, 0 8" fill="#2d3436" />
    </marker>
  </defs>
</svg>